<?xml version="1.0" encoding="utf-8"?>
<svg version="1.1" id="Capa_1" x="0px" y="0px" viewBox="0 0 360 360" style="enable-background:new 0 0 360 360;" xmlns="http://www.w3.org/2000/svg">
  <g>
    <path d="M303.118,0H56.882C25.516,0,0,25.516,0,56.882v246.236C0,334.484,25.516,360,56.882,360h246.236 C334.484,360,360,334.484,360,303.118V56.882C360,25.516,334.484,0,303.118,0z M322.078,303.118c0,10.454-8.506,18.96-18.959,18.96 H56.882c-10.454,0-18.959-8.506-18.959-18.96V56.882c0-10.454,8.506-18.959,18.959-18.959h246.236 c10.454,0,18.959,8.506,18.959,18.959V303.118z"/>
  </g>
  <g/>
  <g/>
  <g/>
  <g/>
  <g/>
  <g/>
  <g/>
  <g/>
  <g/>
  <g/>
  <g/>
  <g/>
  <g/>
  <g/>
  <g/>
</svg>