<?xml version="1.0"?>
<svg xmlns="http://www.w3.org/2000/svg" xmlns:xlink="http://www.w3.org/1999/xlink" xmlns:svgjs="http://svgjs.com/svgjs" version="1.1" width="512" height="512" x="0" y="0" viewBox="0 0 512.001 512.001" style="enable-background:new 0 0 512 512" xml:space="preserve" class=""><g>
<g xmlns="http://www.w3.org/2000/svg">
	<g>
		<path d="M449.511,0H62.491c-16.44,0-29.768,13.328-29.768,29.768v355.487c0,16.44,13.328,29.768,29.768,29.768h227.021    l-26.081-26.081c-1.952-1.951-3.327-4.402-3.977-7.084l-15.594-64.384H139.223c-8.087,0-15.045-6.214-15.425-14.292    c-0.406-8.624,6.466-15.745,15.001-15.745l120.112,0.14l77.19,17.331c2.776,0.624,5.318,2.022,7.329,4.034l106.08,106.08    c16.44,0,29.768-13.328,29.768-29.768V29.768C479.279,13.328,465.951,0,449.511,0z M373.204,254.935H138.799    c-8.294,0-15.018-6.724-15.018-15.018c-0.001-8.294,6.723-15.018,15.018-15.018h234.405c8.294,0,15.018,6.724,15.018,15.018    S381.498,254.935,373.204,254.935z M373.204,192.397H138.799c-8.294,0-15.018-6.724-15.018-15.018s6.723-15.018,15.018-15.018    h234.405c8.294,0,15.018,6.724,15.018,15.018S381.498,192.397,373.204,192.397z M373.204,129.858H138.799    c-8.294,0-15.018-6.724-15.018-15.018c0-8.294,6.723-15.018,15.018-15.018h234.405c8.294,0,15.018,6.724,15.018,15.018    C388.222,123.134,381.498,129.858,373.204,129.858z" fill="#FFFFFF" data-original="#000000" style="" class=""/>
	</g>
</g>
<g xmlns="http://www.w3.org/2000/svg">
	<g>
		<path d="M462.09,470.081L325.272,333.262l-49.367-11.084l11.75,48.509l136.914,136.915c5.865,5.865,15.374,5.865,21.239,0    l16.282-16.282C467.955,485.455,467.955,475.946,462.09,470.081z" fill="#FFFFFF" data-original="#000000" style="" class=""/>
	</g>
</g>
<g xmlns="http://www.w3.org/2000/svg">
</g>
<g xmlns="http://www.w3.org/2000/svg">
</g>
<g xmlns="http://www.w3.org/2000/svg">
</g>
<g xmlns="http://www.w3.org/2000/svg">
</g>
<g xmlns="http://www.w3.org/2000/svg">
</g>
<g xmlns="http://www.w3.org/2000/svg">
</g>
<g xmlns="http://www.w3.org/2000/svg">
</g>
<g xmlns="http://www.w3.org/2000/svg">
</g>
<g xmlns="http://www.w3.org/2000/svg">
</g>
<g xmlns="http://www.w3.org/2000/svg">
</g>
<g xmlns="http://www.w3.org/2000/svg">
</g>
<g xmlns="http://www.w3.org/2000/svg">
</g>
<g xmlns="http://www.w3.org/2000/svg">
</g>
<g xmlns="http://www.w3.org/2000/svg">
</g>
<g xmlns="http://www.w3.org/2000/svg">
</g>
</g></svg>
