<?xml version="1.0" encoding="iso-8859-1"?>
<!-- Generator: Adobe Illustrator 19.0.0, SVG Export Plug-In . SVG Version: 6.00 Build 0)  -->
<svg xmlns="http://www.w3.org/2000/svg" xmlns:xlink="http://www.w3.org/1999/xlink" version="1.1" id="Layer_1" x="0px" y="0px" viewBox="0 0 512 512" style="enable-background:new 0 0 512 512;" xml:space="preserve" width="512px" height="512px">
<g>
	<g>
		<path d="M481.817,151.899h-34.47v-1.306c0-16.643-13.54-30.183-30.183-30.183h-65.84c-16.643,0-30.183,13.54-30.183,30.183v87.293    H190.858v-87.293c0-16.643-13.54-30.183-30.182-30.183h-65.84c-16.643,0-30.183,13.54-30.183,30.183v1.306h-34.47    C13.54,151.9,0,165.44,0,182.082v147.835c0,16.643,13.54,30.183,30.183,30.183h34.47v1.306c0,16.643,13.54,30.183,30.183,30.183    h65.84c16.643,0,30.182-13.54,30.182-30.183v-87.301h130.283v87.301c0,16.643,13.54,30.183,30.183,30.183h65.84    c16.643,0,30.183-13.54,30.183-30.183v-1.306h34.47c16.643,0,30.183-13.54,30.183-30.183V182.082    C512,165.44,498.46,151.899,481.817,151.899z M64.653,323.881H36.22V188.119h28.434V323.881z M154.638,355.37h-53.766    c0-8.415,0-190.066,0-198.74h53.766V355.37z M411.127,355.37H357.36V156.63h53.767    C411.127,166.192,411.127,345.901,411.127,355.37z M475.78,323.881h-28.434V188.119h28.434V323.881z" fill="#FFFFFF"/>
	</g>
</g>
<g>
</g>
<g>
</g>
<g>
</g>
<g>
</g>
<g>
</g>
<g>
</g>
<g>
</g>
<g>
</g>
<g>
</g>
<g>
</g>
<g>
</g>
<g>
</g>
<g>
</g>
<g>
</g>
<g>
</g>
</svg>
