<?xml version="1.0"?>
<svg xmlns="http://www.w3.org/2000/svg" id="Capa_1" enable-background="new 0 0 512 512" height="512px" viewBox="0 0 512 512" width="512px" class=""><g><g><path d="m497 220h-120c-8.284 0-15 6.716-15 15v40c0 8.284 6.716 15 15 15h120c8.284 0 15-6.716 15-15v-40c0-8.284-6.716-15-15-15z" data-original="#000000" class="active-path" data-old_color="#000000" fill="#FFFFFF"/><path d="m497 0h-120c-8.284 0-15 6.716-15 15v40c0 8.284 6.716 15 15 15h120c8.284 0 15-6.716 15-15v-40c0-8.284-6.716-15-15-15z" data-original="#000000" class="active-path" data-old_color="#000000" fill="#FFFFFF"/><path d="m0 395v102c0 8.284 6.716 15 15 15h35v-97c0-2.329.542-4.625 1.583-6.708 12.049-24.097 18.417-51.073 18.417-78.013v-26.934c-40.293 11.002-70 47.922-70 91.655z" data-original="#000000" class="active-path" data-old_color="#000000" fill="#FFFFFF"/><path d="m300 303.345v26.934c0 26.94 6.368 53.917 18.417 78.013 1.042 2.083 1.583 4.379 1.583 6.708v97h35c8.284 0 15-6.716 15-15v-102c0-43.733-29.707-80.653-70-91.655z" data-original="#000000" class="active-path" data-old_color="#000000" fill="#FFFFFF"/><path d="m95 100h101.779c4.719 0 9.102 2.267 11.994 5.996 6.772 8.731 17.28 14.004 28.589 14.004h37.638v-30c0-38.66-31.34-70-70-70h-61.716c-18.11 0-35.478-7.194-48.284-20-27.614 0-50 22.386-50 50 0 27.614 22.386 50 50 50z" data-original="#000000" class="active-path" data-old_color="#000000" fill="#FFFFFF"/><path d="m275 185v-35h-37.639c-18.281 0-35.225-7.361-47.464-20h-94.897v55c0 49.706 40.294 90 90 90 49.706 0 90-40.294 90-90z" data-original="#000000" class="active-path" data-old_color="#000000" fill="#FFFFFF"/><path d="m155 301.203v13.797c0 16.569 13.431 30 30 30s30-13.431 30-30v-13.796c-9.592 2.478-19.645 3.797-30 3.797s-20.408-1.32-30-3.798z" data-original="#000000" class="active-path" data-old_color="#000000" fill="#FFFFFF"/><path d="m422 100h30v90h-30z" data-original="#000000" class="active-path" data-old_color="#000000" fill="#FFFFFF"/><path d="m270 300h-25v15c0 33.084-26.916 60-60 60s-60-26.916-60-60v-15h-25v30.279c0 30.371-6.907 60.782-20 88.189v93.532h210v-93.532c-13.093-27.407-20-57.819-20-88.189z" data-original="#000000" class="active-path" data-old_color="#000000" fill="#FFFFFF"/></g></g> </svg>
