<?xml version="1.0"?>
<svg xmlns="http://www.w3.org/2000/svg" xmlns:xlink="http://www.w3.org/1999/xlink" xmlns:svgjs="http://svgjs.com/svgjs" version="1.1" width="512" height="512" x="0" y="0" viewBox="0 0 24 24" style="enable-background:new 0 0 512 512" xml:space="preserve" class=""><g><path xmlns="http://www.w3.org/2000/svg" d="m11 14.73v9.27l-7-3.75v-9.24z" fill="#17a2b8" data-original="#000000" style="" class=""/><path xmlns="http://www.w3.org/2000/svg" d="m20 11.01v9.24l-7 3.75v-9.27z" fill="#17a2b8" data-original="#000000" style="" class=""/><path xmlns="http://www.w3.org/2000/svg" d="m12.53.22c-.293-.293-.768-.293-1.061 0l-2.249 2.25c-.471.471-.136 1.28.53 1.28h1.25v4.25c0 .552.448 1 1 1s1-.448 1-1v-4.25h1.25c.666 0 1.001-.809.53-1.28z" fill="#17a2b8" data-original="#000000" style="" class=""/><path xmlns="http://www.w3.org/2000/svg" d="m15 6.094v1.906c0 1.654-1.346 3-3 3s-3-1.346-3-3v-1.906l-5 2.656 8 4.25 8-4.25z" fill="#17a2b8" data-original="#000000" style="" class=""/></g></svg>
