<?xml version="1.0"?>
<svg xmlns="http://www.w3.org/2000/svg" xmlns:xlink="http://www.w3.org/1999/xlink" xmlns:svgjs="http://svgjs.com/svgjs" version="1.1" width="512" height="512" x="0" y="0" viewBox="0 0 24 24" style="enable-background:new 0 0 512 512" xml:space="preserve" class=""><g><path xmlns="http://www.w3.org/2000/svg" d="m11 14.73v9.27l-7-3.75v-9.24z" fill="#17a2b8" data-original="#000000" style="" class=""/><path xmlns="http://www.w3.org/2000/svg" d="m20 11.01v9.24l-7 3.75v-9.27z" fill="#17a2b8" data-original="#000000" style="" class=""/><path xmlns="http://www.w3.org/2000/svg" d="m14.25 5.25h-1.25v-4.25c0-.552-.448-1-1-1s-1 .448-1 1v4.25h-1.25c-.666 0-1.001.809-.53 1.28l2.25 2.25c.146.147.338.22.53.22s.384-.073.53-.22l2.25-2.25c.471-.471.136-1.28-.53-1.28z" fill="#17a2b8" data-original="#000000" style="" class=""/><path xmlns="http://www.w3.org/2000/svg" d="m16.788 7.044c-.136.329-.331.638-.594.901l-2.25 2.25c-.519.519-1.21.805-1.944.805s-1.425-.286-1.944-.806l-2.25-2.25c-.263-.263-.459-.571-.594-.9l-3.212 1.706 8 4.25 8-4.25z" fill="#17a2b8" data-original="#000000" style="" class=""/></g></svg>
